<svg width="49" height="35" viewBox="0 0 49 35" fill="none" xmlns="http://www.w3.org/2000/svg">
<path fill-rule="evenodd" clip-rule="evenodd" d="M31.2265 15.2448C31.2479 10.8526 26.8879 3.04248 24.407 0.564572C24.2434 0.706626 24.0517 0.898551 23.8386 1.13619C23.674 1.31965 23.4966 1.53035 23.3093 1.76638C21.3591 4.2246 18.3414 9.43084 17.6369 15.228C17.3292 21.3171 20.8665 25.079 24.4419 28.2539C27.9443 25.3114 31.4468 20.8976 31.2265 15.2448ZM24.4694 26.0798C27.3779 23.3436 29.7836 19.7064 29.613 15.3262L29.6116 15.2907L29.6118 15.2552C29.6205 13.4609 28.6882 10.6979 27.3081 7.92154C26.3587 6.01157 25.2861 4.27034 24.363 3.02974C23.727 3.86621 22.9428 5.05055 22.166 6.51357C20.8539 8.98463 19.653 12.0853 19.2468 15.3483C19.0283 20.0741 21.4262 23.2217 24.4694 26.0798Z" fill="#403620"/>
<path fill-rule="evenodd" clip-rule="evenodd" d="M19.6248 14.3852C16.4636 11.5501 8.02098 10.0891 4.63829 10.5191C4.61599 12.7201 6.33208 20.1988 10.8945 25.4373C15.0986 29.5941 20.0872 29.1279 24.6758 28.2539C24.7957 23.515 23.8521 17.8323 19.6248 14.3852ZM23.1047 26.8467C23.0126 22.6584 21.9315 18.3424 18.6765 15.6882L18.6467 15.6638L18.6179 15.6381C17.3631 14.5127 14.8049 13.5056 11.912 12.8478C9.87354 12.3843 7.88119 12.1407 6.38369 12.1066C6.57379 13.1788 6.9337 14.6378 7.52001 16.2849C8.46246 18.9326 9.92567 21.8802 12.0037 24.2827C15.2464 27.4559 19.0372 27.5098 23.1047 26.8467Z" fill="#403620"/>
<path fill-rule="evenodd" clip-rule="evenodd" d="M37.8958 25.9931C41.2017 23.3504 44.4161 14.9379 44.771 11.3421C42.7536 10.831 35.5013 10.9486 29.6762 14.5084C24.9246 17.9372 24.2469 23.2029 24.0325 28.145C28.3603 29.3198 33.7911 29.6033 37.8958 25.9931ZM25.6741 26.8363C29.5309 27.6621 33.7324 27.4987 36.8981 24.7143L36.9263 24.6895L36.9556 24.666C38.2766 23.6101 39.7724 21.1777 41.0181 18.3302C41.8916 16.3335 42.5552 14.3356 42.9202 12.7957C41.8958 12.757 40.4874 12.8074 38.8599 13.0465C36.217 13.4349 33.1799 14.2963 30.5061 15.9176C26.8615 18.5761 25.968 22.4923 25.6741 26.8363Z" fill="#403620"/>
</svg>
