<svg width="406" height="124" viewBox="0 0 406 124" fill="none" xmlns="http://www.w3.org/2000/svg">
<path d="M114.746 81.46C115.934 81.46 116.864 81.802 117.536 82.486C118.22 83.17 118.562 84.178 118.562 85.51V91H117.284V85.636C117.284 84.652 117.044 83.902 116.564 83.386C116.096 82.87 115.43 82.612 114.566 82.612C113.582 82.612 112.808 82.918 112.244 83.53C111.68 84.13 111.398 84.964 111.398 86.032V91H110.12V85.636C110.12 84.652 109.88 83.902 109.4 83.386C108.932 82.87 108.26 82.612 107.384 82.612C106.412 82.612 105.638 82.918 105.062 83.53C104.498 84.13 104.216 84.964 104.216 86.032V91H102.938V81.532H104.162V83.26C104.498 82.684 104.966 82.24 105.566 81.928C106.166 81.616 106.856 81.46 107.636 81.46C108.428 81.46 109.112 81.628 109.688 81.964C110.276 82.3 110.714 82.798 111.002 83.458C111.35 82.834 111.848 82.348 112.496 82C113.156 81.64 113.906 81.46 114.746 81.46ZM133.007 86.662H125.087C125.159 87.646 125.537 88.444 126.221 89.056C126.905 89.656 127.769 89.956 128.813 89.956C129.401 89.956 129.941 89.854 130.433 89.65C130.925 89.434 131.351 89.122 131.711 88.714L132.431 89.542C132.011 90.046 131.483 90.43 130.847 90.694C130.223 90.958 129.533 91.09 128.777 91.09C127.805 91.09 126.941 90.886 126.185 90.478C125.441 90.058 124.859 89.482 124.439 88.75C124.019 88.018 123.809 87.19 123.809 86.266C123.809 85.342 124.007 84.514 124.403 83.782C124.811 83.05 125.363 82.48 126.059 82.072C126.767 81.664 127.559 81.46 128.435 81.46C129.311 81.46 130.097 81.664 130.793 82.072C131.489 82.48 132.035 83.05 132.431 83.782C132.827 84.502 133.025 85.33 133.025 86.266L133.007 86.662ZM128.435 82.558C127.523 82.558 126.755 82.852 126.131 83.44C125.519 84.016 125.171 84.772 125.087 85.708H131.801C131.717 84.772 131.363 84.016 130.739 83.44C130.127 82.852 129.359 82.558 128.435 82.558ZM150.135 81.46C151.323 81.46 152.253 81.802 152.925 82.486C153.609 83.17 153.951 84.178 153.951 85.51V91H152.673V85.636C152.673 84.652 152.433 83.902 151.953 83.386C151.485 82.87 150.819 82.612 149.955 82.612C148.971 82.612 148.197 82.918 147.633 83.53C147.069 84.13 146.787 84.964 146.787 86.032V91H145.509V85.636C145.509 84.652 145.269 83.902 144.789 83.386C144.321 82.87 143.649 82.612 142.773 82.612C141.801 82.612 141.027 82.918 140.451 83.53C139.887 84.13 139.605 84.964 139.605 86.032V91H138.327V81.532H139.551V83.26C139.887 82.684 140.355 82.24 140.955 81.928C141.555 81.616 142.245 81.46 143.025 81.46C143.817 81.46 144.501 81.628 145.077 81.964C145.665 82.3 146.103 82.798 146.391 83.458C146.739 82.834 147.237 82.348 147.885 82C148.545 81.64 149.295 81.46 150.135 81.46ZM164.022 91.09C163.11 91.09 162.288 90.886 161.556 90.478C160.824 90.058 160.248 89.482 159.828 88.75C159.408 88.018 159.198 87.19 159.198 86.266C159.198 85.342 159.408 84.514 159.828 83.782C160.248 83.05 160.824 82.48 161.556 82.072C162.288 81.664 163.11 81.46 164.022 81.46C164.934 81.46 165.756 81.664 166.488 82.072C167.22 82.48 167.79 83.05 168.198 83.782C168.618 84.514 168.828 85.342 168.828 86.266C168.828 87.19 168.618 88.018 168.198 88.75C167.79 89.482 167.22 90.058 166.488 90.478C165.756 90.886 164.934 91.09 164.022 91.09ZM164.022 89.956C164.694 89.956 165.294 89.806 165.822 89.506C166.362 89.194 166.782 88.756 167.082 88.192C167.382 87.628 167.532 86.986 167.532 86.266C167.532 85.546 167.382 84.904 167.082 84.34C166.782 83.776 166.362 83.344 165.822 83.044C165.294 82.732 164.694 82.576 164.022 82.576C163.35 82.576 162.744 82.732 162.204 83.044C161.676 83.344 161.256 83.776 160.944 84.34C160.644 84.904 160.494 85.546 160.494 86.266C160.494 86.986 160.644 87.628 160.944 88.192C161.256 88.756 161.676 89.194 162.204 89.506C162.744 89.806 163.35 89.956 164.022 89.956ZM175.361 83.386C175.661 82.75 176.105 82.27 176.693 81.946C177.293 81.622 178.031 81.46 178.907 81.46V82.702L178.601 82.684C177.605 82.684 176.825 82.99 176.261 83.602C175.697 84.214 175.415 85.072 175.415 86.176V91H174.137V81.532H175.361V83.386ZM183.921 81.532H185.199V91H183.921V81.532ZM184.569 79.462C184.305 79.462 184.083 79.372 183.903 79.192C183.723 79.012 183.633 78.796 183.633 78.544C183.633 78.304 183.723 78.094 183.903 77.914C184.083 77.734 184.305 77.644 184.569 77.644C184.833 77.644 185.055 77.734 185.235 77.914C185.415 78.082 185.505 78.286 185.505 78.526C185.505 78.79 185.415 79.012 185.235 79.192C185.055 79.372 184.833 79.462 184.569 79.462ZM199.699 86.662H191.779C191.851 87.646 192.229 88.444 192.913 89.056C193.597 89.656 194.461 89.956 195.505 89.956C196.093 89.956 196.633 89.854 197.125 89.65C197.617 89.434 198.043 89.122 198.403 88.714L199.123 89.542C198.703 90.046 198.175 90.43 197.539 90.694C196.915 90.958 196.225 91.09 195.469 91.09C194.497 91.09 193.633 90.886 192.877 90.478C192.133 90.058 191.551 89.482 191.131 88.75C190.711 88.018 190.501 87.19 190.501 86.266C190.501 85.342 190.699 84.514 191.095 83.782C191.503 83.05 192.055 82.48 192.751 82.072C193.459 81.664 194.251 81.46 195.127 81.46C196.003 81.46 196.789 81.664 197.485 82.072C198.181 82.48 198.727 83.05 199.123 83.782C199.519 84.502 199.717 85.33 199.717 86.266L199.699 86.662ZM195.127 82.558C194.215 82.558 193.447 82.852 192.823 83.44C192.211 84.016 191.863 84.772 191.779 85.708H198.493C198.409 84.772 198.055 84.016 197.431 83.44C196.819 82.852 196.051 82.558 195.127 82.558ZM207.556 91.09C206.788 91.09 206.05 90.982 205.342 90.766C204.646 90.538 204.1 90.256 203.704 89.92L204.28 88.912C204.676 89.224 205.174 89.482 205.774 89.686C206.374 89.878 206.998 89.974 207.646 89.974C208.51 89.974 209.146 89.842 209.554 89.578C209.974 89.302 210.184 88.918 210.184 88.426C210.184 88.078 210.07 87.808 209.842 87.616C209.614 87.412 209.326 87.262 208.978 87.166C208.63 87.058 208.168 86.956 207.592 86.86C206.824 86.716 206.206 86.572 205.738 86.428C205.27 86.272 204.868 86.014 204.532 85.654C204.208 85.294 204.046 84.796 204.046 84.16C204.046 83.368 204.376 82.72 205.036 82.216C205.696 81.712 206.614 81.46 207.79 81.46C208.402 81.46 209.014 81.544 209.626 81.712C210.238 81.868 210.742 82.078 211.138 82.342L210.58 83.368C209.8 82.828 208.87 82.558 207.79 82.558C206.974 82.558 206.356 82.702 205.936 82.99C205.528 83.278 205.324 83.656 205.324 84.124C205.324 84.484 205.438 84.772 205.666 84.988C205.906 85.204 206.2 85.366 206.548 85.474C206.896 85.57 207.376 85.672 207.988 85.78C208.744 85.924 209.35 86.068 209.806 86.212C210.262 86.356 210.652 86.602 210.976 86.95C211.3 87.298 211.462 87.778 211.462 88.39C211.462 89.218 211.114 89.878 210.418 90.37C209.734 90.85 208.78 91.09 207.556 91.09ZM227.068 78.634C226.516 78.634 226.096 78.784 225.808 79.084C225.532 79.384 225.394 79.828 225.394 80.416V81.532H228.31V82.612H225.43V91H224.152V82.612H222.46V81.532H224.152V80.362C224.152 79.498 224.398 78.814 224.89 78.31C225.394 77.806 226.102 77.554 227.014 77.554C227.374 77.554 227.722 77.608 228.058 77.716C228.394 77.812 228.676 77.956 228.904 78.148L228.472 79.102C228.1 78.79 227.632 78.634 227.068 78.634ZM236.447 91.09C235.535 91.09 234.713 90.886 233.981 90.478C233.249 90.058 232.673 89.482 232.253 88.75C231.833 88.018 231.623 87.19 231.623 86.266C231.623 85.342 231.833 84.514 232.253 83.782C232.673 83.05 233.249 82.48 233.981 82.072C234.713 81.664 235.535 81.46 236.447 81.46C237.359 81.46 238.181 81.664 238.913 82.072C239.645 82.48 240.215 83.05 240.623 83.782C241.043 84.514 241.253 85.342 241.253 86.266C241.253 87.19 241.043 88.018 240.623 88.75C240.215 89.482 239.645 90.058 238.913 90.478C238.181 90.886 237.359 91.09 236.447 91.09ZM236.447 89.956C237.119 89.956 237.719 89.806 238.247 89.506C238.787 89.194 239.207 88.756 239.507 88.192C239.807 87.628 239.957 86.986 239.957 86.266C239.957 85.546 239.807 84.904 239.507 84.34C239.207 83.776 238.787 83.344 238.247 83.044C237.719 82.732 237.119 82.576 236.447 82.576C235.775 82.576 235.169 82.732 234.629 83.044C234.101 83.344 233.681 83.776 233.369 84.34C233.069 84.904 232.919 85.546 232.919 86.266C232.919 86.986 233.069 87.628 233.369 88.192C233.681 88.756 234.101 89.194 234.629 89.506C235.169 89.806 235.775 89.956 236.447 89.956ZM247.786 83.386C248.086 82.75 248.53 82.27 249.118 81.946C249.718 81.622 250.456 81.46 251.332 81.46V82.702L251.026 82.684C250.03 82.684 249.25 82.99 248.686 83.602C248.122 84.214 247.84 85.072 247.84 86.176V91H246.562V81.532H247.786V83.386ZM264.502 86.662H256.582C256.654 87.646 257.032 88.444 257.716 89.056C258.4 89.656 259.264 89.956 260.308 89.956C260.896 89.956 261.436 89.854 261.928 89.65C262.42 89.434 262.846 89.122 263.206 88.714L263.926 89.542C263.506 90.046 262.978 90.43 262.342 90.694C261.718 90.958 261.028 91.09 260.272 91.09C259.3 91.09 258.436 90.886 257.68 90.478C256.936 90.058 256.354 89.482 255.934 88.75C255.514 88.018 255.304 87.19 255.304 86.266C255.304 85.342 255.502 84.514 255.898 83.782C256.306 83.05 256.858 82.48 257.554 82.072C258.262 81.664 259.054 81.46 259.93 81.46C260.806 81.46 261.592 81.664 262.288 82.072C262.984 82.48 263.53 83.05 263.926 83.782C264.322 84.502 264.52 85.33 264.52 86.266L264.502 86.662ZM259.93 82.558C259.018 82.558 258.25 82.852 257.626 83.44C257.014 84.016 256.666 84.772 256.582 85.708H263.296C263.212 84.772 262.858 84.016 262.234 83.44C261.622 82.852 260.854 82.558 259.93 82.558ZM277.602 81.532L273.39 91H272.076L267.882 81.532H269.214L272.76 89.596L276.342 81.532H277.602ZM290.082 86.662H282.162C282.234 87.646 282.612 88.444 283.296 89.056C283.98 89.656 284.844 89.956 285.888 89.956C286.476 89.956 287.016 89.854 287.508 89.65C288 89.434 288.426 89.122 288.786 88.714L289.506 89.542C289.086 90.046 288.558 90.43 287.922 90.694C287.298 90.958 286.608 91.09 285.852 91.09C284.88 91.09 284.016 90.886 283.26 90.478C282.516 90.058 281.934 89.482 281.514 88.75C281.094 88.018 280.884 87.19 280.884 86.266C280.884 85.342 281.082 84.514 281.478 83.782C281.886 83.05 282.438 82.48 283.134 82.072C283.842 81.664 284.634 81.46 285.51 81.46C286.386 81.46 287.172 81.664 287.868 82.072C288.564 82.48 289.11 83.05 289.506 83.782C289.902 84.502 290.1 85.33 290.1 86.266L290.082 86.662ZM285.51 82.558C284.598 82.558 283.83 82.852 283.206 83.44C282.594 84.016 282.246 84.772 282.162 85.708H288.876C288.792 84.772 288.438 84.016 287.814 83.44C287.202 82.852 286.434 82.558 285.51 82.558ZM296.625 83.386C296.925 82.75 297.369 82.27 297.957 81.946C298.557 81.622 299.295 81.46 300.171 81.46V82.702L299.865 82.684C298.869 82.684 298.089 82.99 297.525 83.602C296.961 84.214 296.679 85.072 296.679 86.176V91H295.401V81.532H296.625V83.386Z" fill="black"/>
<path d="M119.44 62.052C119.545 62.052 119.598 62.21 119.598 62.526C119.598 62.842 119.545 63 119.44 63H109.249C107.932 63 105.457 60.7617 101.823 56.285C98.2416 51.7557 93.8702 45.462 88.7089 37.404C87.4449 37.7727 86.0229 37.957 84.4429 37.957C83.4422 37.957 82.2572 37.9043 80.8879 37.799V56.601C80.8879 58.2337 81.0459 59.4187 81.3619 60.156C81.6779 60.8933 82.2836 61.3937 83.1789 61.657C84.1269 61.9203 85.6016 62.052 87.6029 62.052C87.7609 62.052 87.8399 62.21 87.8399 62.526C87.8399 62.842 87.7609 63 87.6029 63C85.9702 63 84.6799 62.9737 83.7319 62.921L78.2809 62.842L72.9089 62.921C71.9609 62.9737 70.6179 63 68.8799 63C68.7746 63 68.7219 62.842 68.7219 62.526C68.7219 62.21 68.7746 62.052 68.8799 62.052C70.8812 62.052 72.3559 61.9203 73.3039 61.657C74.2519 61.341 74.9102 60.8143 75.2789 60.077C75.6476 59.3397 75.8319 58.181 75.8319 56.601V20.024C75.8319 18.444 75.6476 17.2853 75.2789 16.548C74.9629 15.8107 74.3309 15.3103 73.3829 15.047C72.4876 14.731 71.0392 14.573 69.0379 14.573C68.8799 14.573 68.8009 14.415 68.8009 14.099C68.8009 13.783 68.8799 13.625 69.0379 13.625L72.9089 13.704C75.1209 13.8093 76.9116 13.862 78.2809 13.862C79.2289 13.862 80.1242 13.8357 80.9669 13.783C81.8096 13.7303 82.5469 13.6777 83.1789 13.625C84.8642 13.467 86.3916 13.388 87.7609 13.388C92.0269 13.388 95.3186 14.257 97.6359 15.995C99.9532 17.733 101.112 20.1557 101.112 23.263C101.112 25.791 100.375 28.1873 98.8999 30.452C97.4252 32.664 95.4766 34.4283 93.0539 35.745C97.5306 42.4337 101.296 47.674 104.351 51.466C107.406 55.2053 110.118 57.9177 112.488 59.603C114.858 61.2357 117.175 62.052 119.44 62.052ZM80.8879 35.824C82.2046 36.0347 83.7582 36.14 85.5489 36.14C89.1829 36.14 91.7899 35.3763 93.3699 33.849C94.9499 32.269 95.7399 29.662 95.7399 26.028C95.7399 18.3913 92.5272 14.573 86.1019 14.573C84.6799 14.573 83.6002 14.7047 82.8629 14.968C82.1782 15.1787 81.6779 15.679 81.3619 16.469C81.0459 17.2063 80.8879 18.444 80.8879 20.182V35.824ZM156.163 51.229C156.163 51.1237 156.269 51.071 156.479 51.071C156.637 51.071 156.769 51.0973 156.874 51.15C157.032 51.2027 157.111 51.2817 157.111 51.387C156.637 54.705 156.4 58.181 156.4 61.815C156.4 62.2363 156.295 62.5523 156.084 62.763C155.926 62.921 155.61 63 155.136 63H122.035C121.93 63 121.877 62.842 121.877 62.526C121.877 62.21 121.93 62.052 122.035 62.052C124.037 62.052 125.485 61.9203 126.38 61.657C127.328 61.3937 127.96 60.8933 128.276 60.156C128.645 59.366 128.829 58.181 128.829 56.601V20.024C128.829 18.444 128.645 17.2853 128.276 16.548C127.96 15.8107 127.328 15.3103 126.38 15.047C125.485 14.731 124.037 14.573 122.035 14.573C121.93 14.573 121.877 14.415 121.877 14.099C121.877 13.783 121.93 13.625 122.035 13.625H153.793C154.267 13.625 154.504 13.862 154.504 14.336L154.662 24.053C154.662 24.211 154.531 24.3163 154.267 24.369C154.004 24.369 153.846 24.29 153.793 24.132C153.635 21.3407 152.793 19.1813 151.265 17.654C149.738 16.074 147.71 15.284 145.182 15.284H140.363C138.52 15.284 137.151 15.442 136.255 15.758C135.413 16.0213 134.807 16.5217 134.438 17.259C134.122 17.9437 133.964 18.997 133.964 20.419V36.456H143.602C146.13 36.456 147.921 36.0347 148.974 35.192C150.08 34.3493 150.633 32.9273 150.633 30.926C150.633 30.8207 150.791 30.768 151.107 30.768C151.423 30.768 151.581 30.8207 151.581 30.926L151.502 37.325C151.502 38.8523 151.529 40.011 151.581 40.801L151.66 44.593C151.66 44.6983 151.502 44.751 151.186 44.751C150.87 44.751 150.712 44.6983 150.712 44.593C150.712 42.2757 150.133 40.6167 148.974 39.616C147.868 38.6153 145.999 38.115 143.365 38.115H133.964V56.285C133.964 57.7597 134.122 58.8393 134.438 59.524C134.754 60.2087 135.334 60.6827 136.176 60.946C137.019 61.2093 138.336 61.341 140.126 61.341H146.446C148.974 61.341 151.081 60.4457 152.766 58.655C154.452 56.8643 155.584 54.389 156.163 51.229ZM175.685 56.285C175.685 57.8123 175.843 58.9183 176.159 59.603C176.475 60.2877 177.054 60.7617 177.897 61.025C178.739 61.2357 180.109 61.341 182.005 61.341H190.616C193.618 61.341 196.014 60.4193 197.805 58.576C199.595 56.7327 200.78 54.1783 201.36 50.913C201.36 50.755 201.491 50.7023 201.755 50.755C202.071 50.755 202.229 50.834 202.229 50.992C201.755 55.3633 201.518 58.971 201.518 61.815C201.518 62.2363 201.439 62.5523 201.281 62.763C201.123 62.921 200.807 63 200.333 63H163.835C163.729 63 163.677 62.842 163.677 62.526C163.677 62.21 163.729 62.052 163.835 62.052C165.836 62.052 167.284 61.9203 168.18 61.657C169.128 61.3937 169.76 60.8933 170.076 60.156C170.392 59.366 170.55 58.181 170.55 56.601V20.024C170.55 18.444 170.392 17.2853 170.076 16.548C169.76 15.8107 169.128 15.3103 168.18 15.047C167.284 14.731 165.836 14.573 163.835 14.573C163.729 14.573 163.677 14.415 163.677 14.099C163.677 13.783 163.729 13.625 163.835 13.625L167.706 13.704C169.918 13.8093 171.708 13.862 173.078 13.862C174.552 13.862 176.396 13.8093 178.608 13.704L182.4 13.625C182.558 13.625 182.637 13.783 182.637 14.099C182.637 14.415 182.558 14.573 182.4 14.573C180.451 14.573 179.003 14.731 178.055 15.047C177.159 15.3103 176.527 15.837 176.159 16.627C175.843 17.3643 175.685 18.523 175.685 20.103V56.285ZM218.914 56.601C218.914 58.181 219.072 59.366 219.388 60.156C219.704 60.8933 220.31 61.3937 221.205 61.657C222.153 61.9203 223.628 62.052 225.629 62.052C225.787 62.052 225.866 62.21 225.866 62.526C225.866 62.842 225.787 63 225.629 63C224.049 63 222.785 62.9737 221.837 62.921L216.228 62.842L210.777 62.921C209.829 62.9737 208.539 63 206.906 63C206.748 63 206.669 62.842 206.669 62.526C206.669 62.21 206.748 62.052 206.906 62.052C208.907 62.052 210.356 61.9203 211.251 61.657C212.199 61.3937 212.831 60.8933 213.147 60.156C213.516 59.366 213.7 58.181 213.7 56.601V20.024C213.7 18.444 213.516 17.2853 213.147 16.548C212.831 15.8107 212.199 15.3103 211.251 15.047C210.356 14.731 208.907 14.573 206.906 14.573C206.748 14.573 206.669 14.415 206.669 14.099C206.669 13.783 206.748 13.625 206.906 13.625L210.777 13.704C212.989 13.8093 214.806 13.862 216.228 13.862C217.808 13.862 219.704 13.8093 221.916 13.704L225.629 13.625C225.787 13.625 225.866 13.783 225.866 14.099C225.866 14.415 225.787 14.573 225.629 14.573C223.68 14.573 222.232 14.731 221.284 15.047C220.389 15.363 219.757 15.916 219.388 16.706C219.072 17.4433 218.914 18.602 218.914 20.182V56.601ZM282.274 13.625C282.432 13.625 282.511 13.783 282.511 14.099C282.511 14.415 282.432 14.573 282.274 14.573C280.484 14.573 278.93 15.047 277.613 15.995C276.297 16.943 275.191 18.5493 274.295 20.814L257.468 62.921C257.416 63.1317 257.126 63.237 256.599 63.237C256.178 63.237 255.888 63.1317 255.73 62.921L236.059 20.182C235.164 18.128 234.216 16.6797 233.215 15.837C232.215 14.9943 230.924 14.573 229.344 14.573C229.186 14.573 229.107 14.415 229.107 14.099C229.107 13.783 229.186 13.625 229.344 13.625L232.346 13.704C233.821 13.8093 235.006 13.862 235.901 13.862C238.008 13.862 240.273 13.8093 242.695 13.704L245.934 13.625C246.092 13.625 246.171 13.783 246.171 14.099C246.171 14.415 246.092 14.573 245.934 14.573C244.302 14.573 243.064 14.7837 242.221 15.205C241.431 15.6263 241.036 16.3373 241.036 17.338C241.036 17.97 241.273 18.8127 241.747 19.866L258.258 56.048L272.478 20.419C272.9 19.313 273.11 18.444 273.11 17.812C273.11 16.706 272.61 15.8897 271.609 15.363C270.609 14.8363 269.055 14.573 266.948 14.573C266.79 14.573 266.711 14.415 266.711 14.099C266.711 13.783 266.79 13.625 266.948 13.625L270.345 13.704C272.136 13.8093 273.769 13.862 275.243 13.862C276.349 13.862 277.587 13.8093 278.956 13.704L282.274 13.625ZM308.947 63.948C304.049 63.948 299.677 62.8157 295.833 60.551C292.041 58.2337 289.091 55.1263 286.985 51.229C284.931 47.279 283.904 42.9867 283.904 38.352C283.904 32.9273 285.273 28.2927 288.012 24.448C290.75 20.5507 294.253 17.6277 298.519 15.679C302.837 13.7303 307.235 12.756 311.712 12.756C316.715 12.756 321.113 13.941 324.905 16.311C328.697 18.6283 331.593 21.7093 333.595 25.554C335.649 29.3987 336.676 33.4803 336.676 37.799C336.676 42.5917 335.412 46.9893 332.884 50.992C330.356 54.9947 326.959 58.1547 322.693 60.472C318.479 62.7893 313.897 63.948 308.947 63.948ZM311.712 62.289C315.293 62.289 318.506 61.42 321.35 59.682C324.246 57.944 326.511 55.3897 328.144 52.019C329.829 48.6483 330.672 44.6457 330.672 40.011C330.672 35.0603 329.75 30.6627 327.907 26.818C326.063 22.9733 323.456 19.9713 320.086 17.812C316.768 15.6527 312.87 14.573 308.394 14.573C302.6 14.573 298.071 16.4427 294.806 20.182C291.54 23.9213 289.908 29.0563 289.908 35.587C289.908 40.5377 290.829 45.067 292.673 49.175C294.516 53.2303 297.097 56.443 300.415 58.813C303.733 61.1303 307.498 62.289 311.712 62.289Z" fill="black" fill-opacity="0.9"/>
</svg>
