<svg width="14" height="15" viewBox="0 0 14 15" fill="none" xmlns="http://www.w3.org/2000/svg">
<path d="M11.9999 4.67019C11.8126 4.48394 11.5591 4.37939 11.2949 4.37939C11.0308 4.37939 10.7773 4.48394 10.5899 4.67019L6.99995 8.21019L3.45995 4.67019C3.27259 4.48394 3.01913 4.37939 2.75495 4.37939C2.49076 4.37939 2.23731 4.48394 2.04995 4.67019C1.95622 4.76315 1.88183 4.87375 1.83106 4.99561C1.78029 5.11747 1.75415 5.24818 1.75415 5.38019C1.75415 5.5122 1.78029 5.6429 1.83106 5.76476C1.88183 5.88662 1.95622 5.99722 2.04995 6.09019L6.28995 10.3302C6.38291 10.4239 6.49351 10.4983 6.61537 10.5491C6.73723 10.5998 6.86794 10.626 6.99995 10.626C7.13196 10.626 7.26267 10.5998 7.38453 10.5491C7.50638 10.4983 7.61699 10.4239 7.70995 10.3302L11.9999 6.09019C12.0937 5.99722 12.1681 5.88662 12.2188 5.76476C12.2696 5.6429 12.2957 5.5122 12.2957 5.38019C12.2957 5.24818 12.2696 5.11747 12.2188 4.99561C12.1681 4.87375 12.0937 4.76315 11.9999 4.67019Z" fill="#403620"/>
</svg>
