<svg width="23" height="18" viewBox="0 0 23 18" fill="none" xmlns="http://www.w3.org/2000/svg">
<path d="M19.1666 0.668806C19.554 0.3 20.0695 0.0961098 20.6043 0.100157C21.1392 0.104204 21.6516 0.315872 22.0333 0.690497C22.4151 1.06512 22.6364 1.5734 22.6505 2.10808C22.6646 2.64277 22.4705 3.16203 22.1091 3.55631L11.1366 17.2788C10.9479 17.482 10.7202 17.6451 10.4671 17.7583C10.2139 17.8715 9.94054 17.9325 9.66328 17.9376C9.38603 17.9428 9.11058 17.8919 8.85342 17.7882C8.59626 17.6844 8.36266 17.5299 8.16659 17.3338L0.890091 10.0573C0.687452 9.86848 0.524921 9.64078 0.412193 9.38779C0.299465 9.13479 0.23885 8.86168 0.233964 8.58474C0.229077 8.30781 0.280021 8.03273 0.383754 7.77591C0.487486 7.5191 0.641884 7.2858 0.837736 7.08995C1.03359 6.8941 1.26688 6.7397 1.5237 6.63597C1.78051 6.53224 2.0556 6.48129 2.33253 6.48618C2.60946 6.49106 2.88257 6.55168 3.13557 6.66441C3.38857 6.77714 3.61627 6.93967 3.80509 7.14231L9.56359 12.8981L19.1143 0.729306C19.1315 0.708134 19.1499 0.687935 19.1693 0.668806H19.1666Z" fill="url(#paint0_linear_1702_191)"/>
<defs>
<linearGradient id="paint0_linear_1702_191" x1="0.233643" y1="9.01905" x2="22.6512" y2="9.01905" gradientUnits="userSpaceOnUse">
<stop stop-color="#F15154"/>
<stop offset="0.333333" stop-color="#C4405E"/>
<stop offset="0.6875" stop-color="#F23472"/>
<stop offset="1" stop-color="#EE406C"/>
</linearGradient>
</defs>
</svg>
