<svg width="auto" height="auto" viewBox="0 0 30 30" fill="none" xmlns="http://www.w3.org/2000/svg">
<g opacity="0.5">
<path fill-rule="evenodd" clip-rule="evenodd" d="M9 27H4.49999C3.67199 27 3.00001 26.328 3.00001 25.5C3.00001 24.672 3.67199 24 4.49999 24H9C9.828 24 10.5 24.672 10.5 25.5C10.5 26.328 9.828 27 9 27ZM10.5 21H3.00001C1.34251 21 0 22.3425 0 24V27C0 28.6575 1.34251 30 3.00001 30H10.5C12.1575 30 13.5 28.6575 13.5 27V24C13.5 22.3425 12.1575 21 10.5 21ZM25.5 6H21C20.172 6 19.5 5.328 19.5 4.5C19.5 3.672 20.172 3 21 3H25.5C26.328 3 27 3.672 27 4.5C27 5.328 26.328 6 25.5 6ZM27 0H19.5C17.8425 0 16.5 1.3425 16.5 3V6C16.5 7.6575 17.8425 9 19.5 9H27C28.6575 9 30 7.6575 30 6V3C30 1.3425 28.6575 0 27 0ZM27 25.5C27 26.328 26.328 27 25.5 27H21C20.172 27 19.5 26.328 19.5 25.5V16.5C19.5 15.672 20.172 15 21 15H25.5C26.328 15 27 15.672 27 16.5V25.5ZM27 12H19.5C17.8425 12 16.5 13.3425 16.5 15V27C16.5 28.6575 17.8425 30 19.5 30H27C28.6575 30 30 28.6575 30 27V15C30 13.3425 28.6575 12 27 12ZM10.5 13.5C10.5 14.328 9.828 15 9 15H4.49999C3.67199 15 3.00001 14.328 3.00001 13.5V4.5C3.00001 3.672 3.67199 3 4.49999 3H9C9.828 3 10.5 3.672 10.5 4.5V13.5ZM10.5 0H3.00001C1.34251 0 0 1.3425 0 3V15C0 16.6575 1.34251 18 3.00001 18H10.5C12.1575 18 13.5 16.6575 13.5 15V3C13.5 1.3425 12.1575 0 10.5 0Z" fill="#403620"/>
</g>
</svg>
