<svg width="26" height="26" viewBox="0 0 26 26" fill="none" xmlns="http://www.w3.org/2000/svg">
<path fill-rule="evenodd" clip-rule="evenodd" d="M12.8144 -1.12026e-06C5.73724 -1.73896e-06 9.14096e-05 5.8203 9.07819e-05 13C9.01542e-05 20.1797 5.73724 26 12.8144 26C19.8915 26 25.6287 20.1797 25.6287 13C25.6287 5.8203 19.8915 -5.01558e-07 12.8144 -1.12026e-06Z" fill="#403620"/>
<path fill-rule="evenodd" clip-rule="evenodd" d="M18.2018 13.2559L9.68636 13.2559L12.4868 16.1408C12.6509 16.3097 12.6463 16.5792 12.4766 16.7427C12.307 16.9062 12.0361 16.9014 11.872 16.7324L8.41879 13.2421C8.41879 13.2421 8.15698 13.0008 8.15698 12.8188C8.15698 12.6544 8.37515 12.4337 8.37515 12.4337L11.8674 8.90292C11.9512 8.8179 12.0618 8.77528 12.1726 8.77528C12.2806 8.77528 12.3889 8.81593 12.472 8.89724C12.6406 9.06182 12.643 9.33132 12.4776 9.49896L9.63728 12.3816L18.2018 12.3816C18.4379 12.3816 18.6292 12.5838 18.6292 12.8188C18.6292 13.0537 18.4379 13.2559 18.2018 13.2559Z" fill="white"/>
<mask id="mask0" mask-type="alpha" maskUnits="userSpaceOnUse" x="8" y="8" width="11" height="9">
<path fill-rule="evenodd" clip-rule="evenodd" d="M18.2018 13.2559L9.68636 13.2559L12.4868 16.1408C12.6509 16.3097 12.6463 16.5792 12.4766 16.7427C12.307 16.9062 12.0361 16.9014 11.872 16.7324L8.41879 13.2421C8.41879 13.2421 8.15698 13.0008 8.15698 12.8188C8.15698 12.6544 8.37515 12.4337 8.37515 12.4337L11.8674 8.90292C11.9512 8.8179 12.0618 8.77528 12.1726 8.77528C12.2806 8.77528 12.3889 8.81593 12.472 8.89724C12.6406 9.06182 12.643 9.33132 12.4776 9.49896L9.63728 12.3816L18.2018 12.3816C18.4379 12.3816 18.6292 12.5838 18.6292 12.8188C18.6292 13.0537 18.4379 13.2559 18.2018 13.2559Z" fill="white"/>
</mask>
<g mask="url(#mask0)">
</g>
</svg>
